HIERARCHY
ROOT pelvis
{
  OFFSET 0 100 0
  CHANNELS 6 Xposition Yposition Zposition Zrotation Xrotation Yrotation
  JOINT pelvis_right_femur
  {
    OFFSET -10.78128 -3.44521 -0.5502486
    CHANNELS 3 Zrotation Xrotation Yrotation
    JOINT right_femur_tibia
    {
      OFFSET -0.8047443 -44.0398 -0.1307829
      CHANNELS 3 Zrotation Xrotation Yrotation
      JOINT right_tibia_foot
      {
        OFFSET 3.006224 -47.83518 -5
        CHANNELS 3 Zrotation Xrotation Yrotation
        End Site
        {
          OFFSET 0 -5 15
        }
      }
    }
  }
  JOINT pelvis_left_femur
  {
    OFFSET 10.78128 -3.44521 -0.5502486
    CHANNELS 3 Zrotation Xrotation Yrotation
    JOINT left_femur_tibia
    {
      OFFSET 0.8047443 -44.0398 -0.1307829
      CHANNELS 3 Zrotation Xrotation Yrotation
      JOINT left_tibia_foot
      {
        OFFSET -4.370144 -48.10324 -4.275266
        CHANNELS 3 Zrotation Xrotation Yrotation
        End Site
        {
          OFFSET 0 -5 15
        }
      }
    }
  }
  JOINT pelvis_spine1
  {
    OFFSET 0 6.468898 -3.129235
    CHANNELS 3 Zrotation Xrotation Yrotation
    JOINT spine1
    {
      OFFSET 0 23.15396 4.99043
      CHANNELS 3 Zrotation Xrotation Yrotation
      JOINT spine2
      {
        OFFSET 0 20.79997 -5.064912
        CHANNELS 3 Zrotation Xrotation Yrotation
        JOINT neck
        {
          OFFSET 0 14.38658 9.616178
          CHANNELS 3 Zrotation Xrotation Yrotation
          End Site
          {
            OFFSET 0 20 0
          }
        }
      }
      JOINT right_manubrium
      {
        OFFSET -5.722621 16.35077 3.967754
        CHANNELS 3 Zrotation Xrotation Yrotation
        JOINT right_clavicle
        {
          OFFSET -13.16364 1.694482 -4.693211
          CHANNELS 3 Zrotation Xrotation Yrotation
          JOINT right_humerus
          {
            OFFSET -28.5034 -0.3100689 -2.792744
            CHANNELS 3 Zrotation Xrotation Yrotation
            JOINT right_radius
            {
              OFFSET -25.15693 0.02248979 -1.271978
              CHANNELS 3 Zrotation Xrotation Yrotation
              End Site
              {
                OFFSET -15 0 0
              }
            }
          }
        }
      }
      JOINT left_manubrium
      {
        OFFSET 5.722621 16.35077 3.967754
        CHANNELS 3 Zrotation Xrotation Yrotation
        JOINT left_clavicle
        {
          OFFSET 13.16364 1.694482 -4.693211
          CHANNELS 3 Zrotation Xrotation Yrotation
          JOINT left_humerus
          {
            OFFSET 29.39168 -1.063119 -2.237045
            CHANNELS 3 Zrotation Xrotation Yrotation
            JOINT left_radius
            {
              OFFSET 24.59957 -0.9528479 0.9047498
              CHANNELS 3 Zrotation Xrotation Yrotation
              End Site
              {
                OFFSET 15 -0 -0
              }
            }
          }
        }
      }
    }
  }
}
MOTION
Frames: 9
Frame Time: 0.0416666666667
0 103.5113 0 2.165297 -0.3309652 0.01959565 3.615731 -14.75412 11.90946 -0 37.40595 -0 -4.845998 -17.89133 -4.325837 -8.172207 9.186171 -21.07499 -0 6.001202 -0 22.32171 -9.647577 29.40789 -2.746809 -2.98298 5.147513 2.748469 10.05286 -7.894469 1.338272 20.64584 6.446128 3.01071 -25.68208 9.158971 5.072761 -20.16289 11.3868 85.56542 34.78624 -18.02672 -0 0 16.7578 -9.278108 8.980164 5.0133 7.008402 -20.85307 0.09441633 -92.54257 21.38123 20.82515 0 0 -14.23798 12.75826 14.65132 -1.905262
0.414614 103.4611 1.576519 1.640131 0.7418386 -0.02547031 4.701747 -17.66647 12.69314 -0 37.89943 -0 -5.00784 -16.90574 -4.084534 -8.032996 8.760791 -20.86886 -0 6.539249 -0 22.8189 -10.19077 29.65621 -2.671722 -2.80722 4.756268 3.062001 9.846275 -8.159959 1.260359 20.32978 6.89046 3.328049 -26.30616 9.397287 5.116705 -19.61831 11.44644 86.00702 34.60979 -18.89673 -0 0 15.81935 -9.104966 9.097466 4.836114 7.189958 -20.99529 0.09251099 -92.16225 21.01478 19.85656 0 0 -15.09535 12.90956 14.26281 -2.430717
0.6754464 103.2554 3.419528 1.134354 0.4503158 -0.003086608 4.784745 -19.67834 9.556827 -0 35.23318 -0 -6.119855 -14.7553 -2.958226 -7.607157 10.12321 -20.89081 -0 7.025795 -0 17.65985 -14.02144 28.35135 -2.389536 -2.404925 4.703064 3.045103 9.661988 -8.064078 1.199643 20.28459 7.030196 3.509864 -26.31495 9.231253 5.15767 -19.15594 11.4237 85.85613 34.52048 -18.82116 -0 0 15.18696 -9.52017 9.416609 5.343842 7.09779 -21.042 -0.07203321 -91.93983 21.42485 19.5809 0 0 -15.88801 12.08605 13.89119 -1.074852
0.8641866 103.0057 5.491054 0.5625126 0.7536988 0.01363972 5.396984 -22.42582 8.416991 -0 33.59932 -0 -6.739477 -12.90184 -2.372092 -7.183009 10.69965 -20.60101 -0 7.646939 -0 15.12594 -16.22713 27.39296 -2.204827 -2.152289 4.514405 3.166936 9.493623 -8.13073 1.156544 20.1558 7.232327 3.69563 -26.53981 9.235383 5.239189 -18.69175 11.43017 85.9703 34.41802 -19.19892 -0 0 14.46869 -9.584633 9.631396 5.488379 7.10243 -21.12196 -0.1812462 -91.72878 21.57865 19.12575 0 0 -16.59528 11.68378 13.64328 -0.4808981
0.999736 102.6496 7.877364 0.01928499 0.8542795 0.04644577 5.901912 -25.15847 6.974755 -0 31.17894 -0 -7.499184 -10.75072 -1.728289 -6.693088 11.40343 -20.01219 -0 8.566891 -0 12.73591 -18.20524 26.05991 -1.971362 -1.888964 4.343681 3.268435 9.322133 -8.174005 1.136997 20.07297 7.3668 3.841542 -26.70418 9.204025 5.373395 -18.19869 11.41866 86.05918 34.34627 -19.59569 -0 0 13.71995 -9.600004 9.880452 5.632191 7.056719 -21.19198 -0.3379911 -91.60421 21.94578 18.82127 0 0 -17.27723 11.12043 13.51531 0.4568362
1.10625 102.2078 10.62094 -0.4875954 1.060756 0.1089089 6.420428 -27.84068 5.863735 -0 28.57716 -0 -8.164871 -8.623243 -1.183245 -6.223216 12.02715 -19.28257 -0 9.693693 -0 10.84898 -19.6905 24.61555 -1.771013 -1.657769 4.150494 3.394682 9.161718 -8.247298 1.116224 19.9782 7.504299 3.977602 -26.89835 9.196614 5.490669 -17.73924 11.41867 86.19575 34.25652 -20.03449 -0 0 13.00281 -9.57279 10.08616 5.72466 7.018498 -21.25445 -0.4821515 -91.46456 22.21829 18.48378 0 0 -17.90253 10.64787 13.38508 1.195295
1.197233 101.6952 13.78568 -0.9172295 1.275819 0.2243636 6.819019 -30.16763 4.762235 -0 25.6706 -0 -8.824803 -6.490199 -0.6365621 -5.795732 12.65868 -18.39828 -0 11.2184 -0 9.143856 -20.69631 22.90476 -1.575313 -1.428457 3.956672 3.521494 9.007012 -8.321424 1.095714 19.8933 7.623678 4.097544 -27.07686 9.177591 5.598862 -17.29723 11.42283 86.33484 34.15727 -20.45682 -0 0 12.30776 -9.551668 10.27638 5.825586 6.960678 -21.30359 -0.6363364 -91.32181 22.48565 18.16414 0 0 -18.49259 10.15646 13.25483 1.941406
1.281798 101.1655 17.42346 -1.280598 1.538175 0.4155151 7.120405 -31.93903 3.770586 -0 22.77976 -0 -9.439522 -4.476679 -0.1266843 -5.412839 13.24396 -17.42435 -0 13.30425 -0 7.40281 -21.13056 20.88451 -1.405414 -1.208261 3.7691 3.6456 8.867321 -8.395452 1.068014 19.8128 7.733348 4.204533 -27.23357 9.145985 5.678579 -16.89794 11.43767 86.46506 34.04272 -20.82022 -0 0 11.67161 -9.572779 10.43779 5.953386 6.892546 -21.33857 -0.785947 -91.14902 22.67711 17.83193 0 0 -19.03211 9.693803 13.08627 2.596042
1.364369 100.7001 21.57782 -1.600139 1.798603 0.6887527 7.358405 -32.90545 2.914445 -0 20.1939 -0 -10.01335 -2.682667 0.3154337 -5.046937 13.70941 -16.36092 -0 16.25337 -0 5.440804 -20.82783 18.50268 -1.257197 -0.9917551 3.60196 3.75386 8.746831 -8.456863 1.033593 19.74727 7.822198 4.293138 -27.34237 9.086454 5.730141 -16.54559 11.46154 86.56538 33.92072 -21.09146 -0 0 11.1054 -9.663029 10.57794 6.13134 6.805552 -21.35786 -0.9362737 -90.94916 22.81357 17.50797 0 0 -19.51739 9.233025 12.88027 3.214831
